<svg preserveAspectRatio="none" overflow="visible" style="display: block;" width="20" height="20" viewBox="0 0 20 20" fill="none" xmlns="http://www.w3.org/2000/svg">
<g id="twemoji:cupcake" clip-path="url(#clip0_0_4)">
<path id="Vector" d="M2.77778 12.1528C2.77778 12.1528 3.66056 15.3344 3.88889 16.865C4.14667 18.5933 5.87278 19.96 10 19.96C14.1272 19.96 15.8533 18.5928 16.1111 16.865C16.3394 15.3344 17.2222 12.1528 17.2222 12.1528H2.77778Z" fill="#BBDDF5"/>
<path id="Vector_2" d="M2.83 12.205C2.96889 12.8822 3.21556 13.3128 3.57667 13.0906C3.93778 12.8683 4.49333 12.9833 4.32333 13.4378C4.16722 13.8544 4.86167 14.0456 5.15667 13.8022C5.43944 13.5694 6.02056 13.3128 6.07667 13.8367C6.12889 14.3228 6.72556 14.4533 6.99667 14.0972C7.27444 13.7328 8.03833 13.8783 8.17722 14.3228C8.31611 14.7672 9.06278 14.705 9.27111 14.3922C9.46833 14.0961 9.66722 13.9006 10 13.9006V13.8889C10.3333 13.8889 10.5317 14.0961 10.7289 14.3922C10.9372 14.7044 11.6839 14.7672 11.8228 14.3228C11.9617 13.8783 12.7256 13.7328 13.0033 14.0972C13.275 14.4533 13.8711 14.3228 13.9233 13.8367C13.9794 13.3128 14.5606 13.5689 14.8433 13.8022C15.1383 14.0456 15.8328 13.8544 15.6767 13.4378C15.5061 12.9833 16.0622 12.8683 16.4233 13.0906C16.7844 13.3128 17.0311 12.8822 17.17 12.205H2.83Z" fill="#662113"/>
<path id="Vector_3" d="M18.3333 10.5383C18.3333 7.80556 14.5939 5.59056 9.98167 5.59056C5.36889 5.59056 1.63 7.80556 1.63 10.5383C1.63 12.7433 6.63 13.8889 9.98167 13.8889C13.3333 13.8889 18.3333 12.7778 18.3333 10.5383Z" fill="#C1694F"/>
<path id="Vector_4" d="M10 19.7222C9.92633 19.7222 9.85567 19.693 9.80358 19.6409C9.75149 19.5888 9.72222 19.5181 9.72222 19.4444V14.6411C9.72222 14.5674 9.75149 14.4968 9.80358 14.4447C9.85567 14.3926 9.92633 14.3633 10 14.3633C10.0737 14.3633 10.1443 14.3926 10.1964 14.4447C10.2485 14.4968 10.2778 14.5674 10.2778 14.6411V19.4444C10.2778 19.5181 10.2485 19.5888 10.1964 19.6409C10.1443 19.693 10.0737 19.7222 10 19.7222ZM6.27833 19.0178C6.21081 19.0178 6.14559 18.9932 6.09488 18.9486C6.04416 18.9041 6.01142 18.8425 6.00278 18.7756L5.43 14.3411C5.42524 14.3049 5.42768 14.2681 5.43718 14.2328C5.44667 14.1975 5.46303 14.1644 5.48533 14.1355C5.50762 14.1065 5.53541 14.0823 5.5671 14.0641C5.59879 14.0459 5.63376 14.0341 5.67 14.0294C5.70622 14.0245 5.74305 14.0269 5.77837 14.0363C5.81368 14.0458 5.84676 14.0621 5.8757 14.0844C5.90464 14.1068 5.92886 14.1346 5.94696 14.1664C5.96505 14.1981 5.97666 14.2332 5.98111 14.2694L6.55389 18.7039C6.55884 18.7431 6.55543 18.7828 6.54386 18.8206C6.53229 18.8583 6.51284 18.8932 6.48679 18.9229C6.46074 18.9526 6.42869 18.9764 6.39275 18.9927C6.35682 19.0091 6.31782 19.0176 6.27833 19.0178ZM8.04444 19.56C7.97475 19.56 7.90761 19.5337 7.85636 19.4865C7.80511 19.4392 7.77349 19.3745 7.76778 19.305L7.37444 14.5711C7.37145 14.5347 7.37565 14.4981 7.38681 14.4634C7.39796 14.4287 7.41585 14.3964 7.43945 14.3686C7.46305 14.3408 7.49191 14.3179 7.52436 14.3012C7.55682 14.2845 7.59224 14.2744 7.62861 14.2714C7.66498 14.2684 7.70158 14.2726 7.73633 14.2838C7.77107 14.2949 7.80328 14.3128 7.83111 14.3364C7.85894 14.36 7.88185 14.3889 7.89854 14.4213C7.91522 14.4538 7.92534 14.4892 7.92833 14.5256L8.32167 19.2594C8.32766 19.3328 8.30429 19.4056 8.25668 19.4617C8.20908 19.5178 8.14114 19.5528 8.06778 19.5589L8.04444 19.56ZM4.73389 17.8706C4.68583 17.8705 4.63928 17.8538 4.60212 17.8233C4.56496 17.7928 4.53948 17.7504 4.53 17.7033L3.69667 13.5711C3.69124 13.5443 3.69115 13.5167 3.69639 13.4899C3.70164 13.4631 3.71212 13.4376 3.72724 13.4148C3.74236 13.3921 3.76182 13.3725 3.7845 13.3573C3.80719 13.3421 3.83266 13.3315 3.85944 13.3261C3.96944 13.2994 4.08167 13.3761 4.105 13.4889L4.93833 17.6211C4.94453 17.6514 4.9439 17.6826 4.93648 17.7126C4.92907 17.7426 4.91506 17.7706 4.89548 17.7945C4.87589 17.8184 4.85123 17.8376 4.82327 17.8508C4.79532 17.8639 4.76478 17.8707 4.73389 17.8706ZM13.6783 18.955C13.6385 18.9551 13.5991 18.9466 13.5628 18.9301C13.5265 18.9136 13.4942 18.8895 13.468 18.8594C13.4419 18.8293 13.4225 18.7939 13.4113 18.7557C13.4 18.7175 13.3971 18.6772 13.4028 18.6378L14.0306 14.2661C14.042 14.1936 14.0812 14.1285 14.1399 14.0845C14.1987 14.0405 14.2722 14.0211 14.345 14.0306C14.3811 14.0357 14.4159 14.048 14.4472 14.0666C14.4786 14.0852 14.506 14.1098 14.5279 14.139C14.5498 14.1682 14.5657 14.2014 14.5747 14.2368C14.5838 14.2721 14.5857 14.3089 14.5806 14.345L13.9528 18.7167C13.9433 18.7827 13.9103 18.8432 13.8599 18.887C13.8096 18.9307 13.7451 18.9549 13.6783 18.955ZM11.9883 19.56L11.965 19.5589C11.8916 19.5528 11.8237 19.5178 11.7761 19.4617C11.7285 19.4056 11.7051 19.3328 11.7111 19.2594L12.1044 14.5256C12.1167 14.3722 12.2667 14.2622 12.4039 14.2717C12.4772 14.2778 12.5452 14.3127 12.5928 14.3689C12.6404 14.425 12.6638 14.4977 12.6578 14.5711L12.2644 19.305C12.2587 19.3744 12.2272 19.4391 12.1761 19.4863C12.1249 19.5335 12.0579 19.5598 11.9883 19.56ZM15.3122 17.8933C15.2816 17.8934 15.2513 17.8867 15.2235 17.8736C15.1957 17.8606 15.1712 17.8416 15.1517 17.818C15.1321 17.7943 15.118 17.7667 15.1105 17.737C15.1029 17.7072 15.102 17.6762 15.1078 17.6461L15.9067 13.4911C15.9118 13.4643 15.9221 13.4387 15.9371 13.4158C15.9521 13.393 15.9714 13.3733 15.994 13.3579C16.0166 13.3426 16.042 13.3318 16.0688 13.3262C16.0956 13.3207 16.1232 13.3204 16.15 13.3256C16.1768 13.3307 16.2024 13.341 16.2253 13.356C16.2481 13.371 16.2678 13.3903 16.2832 13.4129C16.2985 13.4355 16.3093 13.4609 16.3149 13.4877C16.3204 13.5145 16.3207 13.542 16.3156 13.5689L15.5167 17.7239C15.5077 17.7716 15.4824 17.8146 15.445 17.8455C15.4077 17.8765 15.3607 17.8934 15.3122 17.8933Z" fill="#88C9F9"/>
<path id="Vector_5" d="M9.39556 -0.00611111C9.39556 -0.00611111 9.99944 0.629445 10.6039 0.642222C11.8639 0.669445 13.0233 1.37278 13.0233 2.59C13.0233 2.59 15.9461 2.59 16.0472 5.18667C16.0472 5.18667 17.5222 5.21167 17.86 7.78222C18.1122 9.70222 16.1722 12.3528 10 12.3256C4.55833 12.3017 1.77444 10.3678 2.14 7.78333C2.49222 5.29444 4.55889 5.18722 4.55889 5.18722C4.55889 5.18722 4.20556 1.94111 8.18611 1.94167C8.18611 1.94167 8.58944 0.643333 9.39556 -0.00611111Z" fill="#FFE8B6"/>
<path id="Vector_6" d="M9.95 5.83556C11.5811 5.22 13.0739 4.105 13.0239 2.59056C13.0239 2.11389 12.8422 1.71944 12.5506 1.41C12.9078 2.97 10.5222 4.74333 7.88444 5.02444C4.58389 5.37611 4.96167 3.42889 4.96167 3.42889L4.95778 3.43278C4.46722 4.28611 4.55944 5.18778 4.55944 5.18778C5.06222 6.51167 7.65722 6.70111 9.95 5.83556Z" fill="#FFCC4D"/>
<path id="Vector_7" d="M16.0472 5.18722C16.0439 5.10778 16.0306 5.03833 16.0222 4.96389C15.9578 4.58778 15.7706 4.12722 15.5922 3.77611C15.4867 3.62907 15.37 3.49907 15.2422 3.38611C15.8583 5.845 12.1517 8.80222 8.61444 9.48722C4.00389 10.3794 2.14 7.78444 2.14 7.78444C1.95 9.12611 2.61667 10.2894 4.05611 11.1044C9.73778 13.4206 16.0967 7.71833 16.0472 5.18722Z" fill="#FFCC4D"/>
<path id="Vector_8" d="M4.82722 7.88944L4.17111 8.78611C4.08378 8.90468 3.95307 8.98386 3.80753 9.00634C3.662 9.02883 3.51349 8.99279 3.39444 8.90611C3.27588 8.81878 3.1967 8.68807 3.17421 8.54254C3.15173 8.397 3.18776 8.24849 3.27444 8.12944L3.93056 7.23278C4.01789 7.11421 4.1486 7.03503 4.29413 7.01254C4.43966 6.99006 4.58818 7.0261 4.70722 7.11278C4.95389 7.29333 5.00778 7.64278 4.82722 7.88944Z" fill="#DD2E44"/>
<path id="Vector_9" d="M8.29722 4.54833L7.21056 4.31556C7.06655 4.28465 6.94071 4.19782 6.86071 4.07416C6.7807 3.9505 6.75307 3.80013 6.78389 3.65611C6.84778 3.35722 7.145 3.165 7.44333 3.22944L8.53 3.46222C8.82889 3.52611 9.02111 3.82333 8.95667 4.12167C8.92576 4.26567 8.83893 4.39151 8.71527 4.47152C8.59161 4.55153 8.44125 4.57916 8.29722 4.54833Z" fill="#55ACEE"/>
<path id="Vector_10" d="M9.12833 7.87389L9.85778 8.71222C10.0583 8.94278 10.0339 9.29556 9.80333 9.49611C9.69198 9.59244 9.54704 9.64078 9.40016 9.63058C9.25328 9.62038 9.11641 9.55246 9.01944 9.44167L8.29 8.60333C8.19367 8.49198 8.14533 8.34704 8.15553 8.20016C8.16573 8.05328 8.23365 7.91641 8.34444 7.81944C8.45579 7.72312 8.60074 7.67477 8.74762 7.68497C8.8945 7.69517 9.03137 7.76309 9.12833 7.87389Z" fill="#77B255"/>
<path id="Vector_11" d="M13.54 6.38833L12.5006 6.78111C12.3627 6.83275 12.21 6.82773 12.0758 6.76714C11.9416 6.70656 11.8369 6.59534 11.7844 6.45778C11.7328 6.31991 11.7378 6.16721 11.7984 6.03304C11.859 5.89886 11.9702 5.79411 12.1078 5.74167L13.1472 5.34889C13.2851 5.29725 13.4378 5.30228 13.572 5.36286C13.7061 5.42344 13.8109 5.53466 13.8633 5.67222C13.915 5.81009 13.9099 5.96279 13.8494 6.09697C13.7888 6.23114 13.6776 6.33589 13.54 6.38833Z" fill="#F4900C"/>
<path id="Vector_12" d="M16.87 7.80611L16.3144 8.76833C16.1617 9.03278 15.82 9.12444 15.5556 8.97167C15.4283 8.89768 15.3355 8.77634 15.2974 8.63416C15.2593 8.49197 15.279 8.34048 15.3522 8.21278L15.9078 7.25056C16.0606 6.98611 16.4022 6.89444 16.6667 7.04722C16.9311 7.2 17.0228 7.54111 16.87 7.80611Z" fill="#AA8DD8"/>
</g>
<defs>
<clipPath id="clip0_0_4">
<rect width="20" height="20" fill="white"/>
</clipPath>
</defs>
</svg>
