<svg preserveAspectRatio="none" overflow="visible" style="display: block;" width="17" height="17" viewBox="0 0 17 17" fill="none" xmlns="http://www.w3.org/2000/svg">
<g id="gamepad-2">
<path id="Vector" d="M4.24966 7.79159H7.08322M5.66644 6.37476V9.20842M10.6252 8.5H10.6323M12.7503 7.08317H12.7574M12.2686 3.5411H4.73137C4.03026 3.54126 3.3541 3.80135 2.83361 4.2711C2.31312 4.74084 1.98525 5.38687 1.91339 6.08431C1.90914 6.12115 1.90631 6.15586 1.90135 6.19199C1.84397 6.66946 1.4161 10.2399 1.4161 11.3337C1.4161 11.8973 1.64 12.4379 2.03855 12.8364C2.43709 13.235 2.97764 13.4589 3.54127 13.4589C4.24966 13.4589 4.60386 13.1047 4.95805 12.7505L5.95971 11.7488C6.22535 11.4831 6.58566 11.3337 6.96138 11.3337H10.0386C10.4143 11.3337 10.7747 11.4831 11.0403 11.7488L12.042 12.7505C12.3961 13.1047 12.7503 13.4589 13.4587 13.4589C14.0224 13.4589 14.5629 13.235 14.9615 12.8364C15.36 12.4379 15.5839 11.8973 15.5839 11.3337C15.5839 10.2392 15.156 6.66946 15.0987 6.19199C15.0937 6.15657 15.0909 6.12115 15.0866 6.08502C15.0149 5.38745 14.6871 4.74125 14.1666 4.27136C13.6461 3.80147 12.9699 3.54128 12.2686 3.5411Z" stroke="#160D2C" stroke-width="2" stroke-linecap="round"/>
</g>
</svg>
