<svg preserveAspectRatio="none" overflow="visible" style="display: block;" width="249.583" height="80" viewBox="0 0 249.583 80" fill="none" xmlns="http://www.w3.org/2000/svg">
<g id="Union">
<mask id="path-1-inside-1_0_43" fill="white">
<path d="M249.583 72C249.583 76.4183 246.001 80 241.583 80H25.01C20.5917 80 17.01 76.4183 17.01 72V64.3533C17.01 60.9596 14.8688 57.9352 11.6679 56.8077L1.33516 53.168C-0.445057 52.5405 -0.445053 50.022 1.33516 49.3945L11.6683 45.754C14.869 44.6264 17.01 41.6021 17.01 38.2086V8C17.01 3.58172 20.5917 0 25.01 0H241.583C246.001 0 249.583 3.58172 249.583 8V72Z"/>
</mask>
<path d="M249.583 72C249.583 76.4183 246.001 80 241.583 80H25.01C20.5917 80 17.01 76.4183 17.01 72V64.3533C17.01 60.9596 14.8688 57.9352 11.6679 56.8077L1.33516 53.168C-0.445057 52.5405 -0.445053 50.022 1.33516 49.3945L11.6683 45.754C14.869 44.6264 17.01 41.6021 17.01 38.2086V8C17.01 3.58172 20.5917 0 25.01 0H241.583C246.001 0 249.583 3.58172 249.583 8V72Z" fill="#FFF0ED"/>
<path d="M1.33516 53.168L1.00276 54.1111L1.00292 54.1112L1.33516 53.168ZM1.33516 49.3945L1.00287 48.4514L1.00276 48.4514L1.33516 49.3945ZM11.6679 56.8077L11.3357 57.7509L11.6679 56.8077ZM241.583 80V79H25.01V80V81H241.583V80ZM17.01 72H18.01V64.3533H17.01H16.01V72H17.01ZM11.6679 56.8077L12.0001 55.8645L1.66741 52.2248L1.33516 53.168L1.00292 54.1112L11.3357 57.7509L11.6679 56.8077ZM1.33516 53.168L1.66757 52.2248C0.777482 51.9111 0.777472 50.6514 1.66757 50.3377L1.33516 49.3945L1.00276 48.4514C-1.66758 49.3925 -1.6676 53.17 1.00276 54.1111L1.33516 53.168ZM1.33516 49.3945L1.66746 50.3377L12.0006 46.6972L11.6683 45.754L11.336 44.8108L1.00287 48.4514L1.33516 49.3945ZM17.01 38.2086H18.01V8H17.01H16.01V38.2086H17.01ZM25.01 0V1H241.583V0V-1H25.01V0ZM249.583 8H248.583V72H249.583H250.583V8H249.583ZM241.583 0V1C245.449 1 248.583 4.13401 248.583 8H249.583H250.583C250.583 3.02944 246.554 -1 241.583 -1V0ZM17.01 64.3533H18.01C18.01 60.5354 15.6011 57.133 12.0001 55.8645L11.6679 56.8077L11.3357 57.7509C14.1364 58.7375 16.01 61.3838 16.01 64.3533H17.01ZM17.01 8H18.01C18.01 4.13401 21.144 1 25.01 1V0V-1C20.0394 -1 16.01 3.02944 16.01 8H17.01ZM25.01 80V79C21.144 79 18.01 75.866 18.01 72H17.01H16.01C16.01 76.9706 20.0394 81 25.01 81V80ZM11.6683 45.754L12.0006 46.6972C15.6014 45.4286 18.01 42.0263 18.01 38.2086H17.01H16.01C16.01 41.1779 14.1366 43.8241 11.336 44.8108L11.6683 45.754ZM241.583 80V81C246.554 81 250.583 76.9706 250.583 72H249.583H248.583C248.583 75.866 245.449 79 241.583 79V80Z" fill="#FBDCFF" mask="url(#path-1-inside-1_0_43)"/>
</g>
</svg>
